<svg width="48" height="24" viewBox="0 0 48 24" fill="none" xmlns="http://www.w3.org/2000/svg">
<path d="M36 0H12C8.8174 0 5.76516 1.26428 3.51472 3.51472C1.26428 5.76516 0 8.8174 0 12C0 15.1826 1.26428 18.2348 3.51472 20.4853C5.76516 22.7357 8.8174 24 12 24H36C39.1826 24 42.2348 22.7357 44.4853 20.4853C46.7357 18.2348 48 15.1826 48 12C48 8.8174 46.7357 5.76516 44.4853 3.51472C42.2348 1.26428 39.1826 0 36 0ZM12 19.2C10.0904 19.2 8.25909 18.4414 6.90883 17.0912C5.55857 15.7409 4.8 13.9096 4.8 12C4.8 10.0904 5.55857 8.25909 6.90883 6.90883C8.25909 5.55857 10.0904 4.8 12 4.8C13.9096 4.8 15.7409 5.55857 17.0912 6.90883C18.4414 8.25909 19.2 10.0904 19.2 12C19.2 13.9096 18.4414 15.7409 17.0912 17.0912C15.7409 18.4414 13.9096 19.2 12 19.2Z" fill="#BBD8CC"/>
<path d="M37.1501 8.85499C37.1039 8.80864 37.0489 8.77186 36.9884 8.74677C36.9279 8.72168 36.8631 8.70877 36.7976 8.70877C36.7321 8.70877 36.6673 8.72168 36.6068 8.74677C36.5463 8.77186 36.4914 8.80864 36.4451 8.85499L34.0001 11.295L31.5551 8.84999C31.5088 8.8037 31.4539 8.76698 31.3934 8.74193C31.3329 8.71687 31.2681 8.70398 31.2026 8.70398C31.1371 8.70398 31.0723 8.71687 31.0118 8.74193C30.9514 8.76698 30.8964 8.8037 30.8501 8.84999C30.8038 8.89628 30.7671 8.95124 30.742 9.01172C30.717 9.0722 30.7041 9.13702 30.7041 9.20249C30.7041 9.26796 30.717 9.33278 30.742 9.39326C30.7671 9.45374 30.8038 9.5087 30.8501 9.55499L33.2951 12L30.8501 14.445C30.8038 14.4913 30.7671 14.5462 30.742 14.6067C30.717 14.6672 30.7041 14.732 30.7041 14.7975C30.7041 14.863 30.717 14.9278 30.742 14.9883C30.7671 15.0487 30.8038 15.1037 30.8501 15.15C30.8964 15.1963 30.9514 15.233 31.0118 15.2581C31.0723 15.2831 31.1371 15.296 31.2026 15.296C31.2681 15.296 31.3329 15.2831 31.3934 15.2581C31.4539 15.233 31.5088 15.1963 31.5551 15.15L34.0001 12.705L36.4451 15.15C36.4914 15.1963 36.5464 15.233 36.6068 15.2581C36.6673 15.2831 36.7321 15.296 36.7976 15.296C36.8631 15.296 36.9279 15.2831 36.9884 15.2581C37.0489 15.233 37.1038 15.1963 37.1501 15.15C37.1964 15.1037 37.2331 15.0487 37.2582 14.9883C37.2832 14.9278 37.2961 14.863 37.2961 14.7975C37.2961 14.732 37.2832 14.6672 37.2582 14.6067C37.2331 14.5462 37.1964 14.4913 37.1501 14.445L34.7051 12L37.1501 9.55499C37.3401 9.36499 37.3401 9.04499 37.1501 8.85499Z" fill="#FBFBFB"/>
</svg>
